<svg xmlns="http://www.w3.org/2000/svg" viewBox="0 0 32 32" fill="none">
  <rect width="32" height="32" rx="8" fill="#6366f1"/>
  <path d="M19 9.5a4.5 4.5 0 0 1 3.182 7.682l-2 2a4.5 4.5 0 0 1-6.364-6.364l1.06 1.06a3 3 0 0 0 4.244 4.244l2-2A3 3 0 0 0 19 11.5a3 3 0 0 0-.879.13l-1.09-1.09A4.476 4.476 0 0 1 19 9.5Z" fill="white"/>
  <path d="M13 22.5a4.5 4.5 0 0 1-3.182-7.682l2-2a4.5 4.5 0 0 1 6.364 6.364l-1.06-1.06a3 3 0 0 0-4.244-4.244l-2 2A3 3 0 0 0 13 20.5a3 3 0 0 0 .879-.13l1.09 1.09A4.476 4.476 0 0 1 13 22.5Z" fill="white"/>
</svg>
